PathFileType	4	(X/Y/Z)	30_2_91_p0_0-184.trc
DataRate	CameraRate	NumFrames	NumMarkers	Units	OrigDataRate	OrigDataStartFrame	OrigNumFrames
50.0	50.0	7	27	m	50.0	115	185
Frame#	Time	RHip			RKnee			RAnkle			RBigToe			RSmallToe			RHeel			LHip			LKnee			LAnkle			LBigToe			LSmallToe			LHeel			Neck			Head			Nose			RShoulder			RElbow			RWrist			RThumb			RIndex			RPinky			LShoulder			LElbow			LWrist			LThumb			LIndex			LPinky			
		X1	Y1	Z1	X2	Y2	Z2	X3	Y3	Z3	X4	Y4	Z4	X5	Y5	Z5	X6	Y6	Z6	X7	Y7	Z7	X8	Y8	Z8	X9	Y9	Z9	X10	Y10	Z10	X11	Y11	Z11	X12	Y12	Z12	X13	Y13	Z13	X14	Y14	Z14	X15	Y15	Z15	X16	Y16	Z16	X17	Y17	Z17	X18	Y18	Z18	X19	Y19	Z19	X20	Y20	Z20	X21	Y21	Z21	X22	Y22	Z22	X23	Y23	Z23	X24	Y24	Z24	X25	Y25	Z25	X26	Y26	Z26	X27	Y27	Z27	
115	2.3	0.22160274582229966	0.5880708975083228	1.4490254017430895	0.3289142831848728	0.2118922284482393	1.4607607331322892	0.3988235592677138	0.6399006507324715	1.9790769951980902	0.3808229455581165	0.5793276026718343	2.054028251909186	0.46168586822286994	0.7198273728687004	2.1527523089568854	0.4206803489853641	0.88576064010079	2.1584778393907627	0.03957080420008684	0.5149547524871603	1.4355893511259146	-0.04248155156303159	0.2208954639134232	1.4950702565933804	0.05649602884037553	0.36188930399671404	1.700746515805441	0.10085625329599923	0.27362737550602506	1.7244337738500233	0.07071530851066601	0.3289378558920046	1.759127689213554	0.07170720449500328	0.42294879399689095	1.7396420961620387	0.07757079542562284	0.24695075783437798	1.2698283052640615	0.031305235465691666	-0.08113152537192309	0.9621812942361567	0.07228320589155725	-0.0019773653981650045	1.1334947503175996	0.22282069578951255	0.1978657263559399	1.1812649242778335	0.36704102877326605	0.11607616431037963	1.359335940218206	0.4386885740330854	-0.020940607332285335	1.5557056798413709	0.38740476344922276	-0.055447645511198566	1.6457076967694153	0.40248691901415506	-0.08752354141268777	1.6233630846414309	0.4286442813125189	-0.07092342811624087	1.6331161674564287	-0.07812212703979815	0.22039849671004386	1.235533888446361	-0.11638547748432661	0.18935904932771463	1.4452176236861471	-0.13612504340914147	0.056104815073615845	1.6420601154580763	-0.11499498095657995	0.017446927135742342	1.7496466006895444	-0.15052928823085596	-0.03188140845697677	1.718998872641435	-0.1720767815435025	-0.03190864783520688	1.71877758073877
116	2.32	0.23016120527266665	0.5892864719392784	1.4451034083005716	0.3300014905527425	0.21624444542247054	1.459432597109648	0.3992485764659232	0.6417670609655101	1.9775148464411536	0.3817414492170279	0.5771058299186131	2.0647793673788866	0.45521256562056645	0.6924953387921831	2.1379176587852227	0.4174819871474343	0.8801432527790337	2.153096107579229	0.04974193470726903	0.5180213016365525	1.4330344720042678	-0.04451734549971312	0.22300965279325366	1.4954162462874623	0.04222953494452422	0.3880696826840196	1.723286838311086	0.09986027968210714	0.27795939848269213	1.727418815152002	0.06974168132051789	0.33293517668381556	1.7617663338066207	0.0716769548959003	0.4241463015124827	1.744317863926391	0.08144793512881074	0.24805713950877095	1.2696869632752257	0.025667866081881457	-0.09151781464454545	0.9659851386344039	0.06930692557169106	-0.011148516233124888	1.1296747314717452	0.22317947103055855	0.1970238379501149	1.18427579007207	0.3676467314872275	0.1136033066580516	1.3639138547821013	0.43882093880429346	-0.020943011269934635	1.555994607618028	0.3871729433045025	-0.055933779473753616	1.6457833032583022	0.4012080671450389	-0.08902802603208217	1.6285807776063037	0.42152500714265495	-0.08065094717557812	1.6274350419916932	-0.07336042283586103	0.22431492404734993	1.2414876642571855	-0.10327081384347464	0.18308008974315904	1.4416551177624615	-0.136985461920332	0.056238337106990305	1.646324654910275	-0.11017909852401525	0.0077203503629702	1.7420654586708813	-0.1454564414652141	-0.013872140832749114	1.736139059828305	-0.16764185398797515	-0.02015914449864972	1.7188509977755282
117	2.34	0.2311850934890747	0.6200282278265625	1.4542802987997525	0.32950736474254805	0.2155171328782998	1.4592185985417063	0.3990017162313872	0.6410943617497121	1.977326591409715	0.38265995287593924	0.5748840571653919	2.0755304828485865	0.4487392630182629	0.6651633047156656	2.1230830086135604	0.4142836253095045	0.8745258654572774	2.1477143757676953	0.05596424345925985	0.532626139314277	1.4399088034580523	-0.04886285477687717	0.20469484711237237	1.4814278568812151	0.04225655736727159	0.38921131555757416	1.7208359309444248	0.09886430606821507	0.28229142145935915	1.730403856453981	0.06876805413036975	0.33693249747562654	1.7644049783996876	0.07164670529679731	0.42534380902807445	1.7489936316907435	0.08092813763350848	0.24794787394286272	1.273422379146867	0.024793904028222208	-0.08409189105141074	0.9645911314414278	0.07407444684601522	-0.011749066223564171	1.1290197289411275	0.22308928577183212	0.19689028109131468	1.1843193052488454	0.36824637835132784	0.11596123998259453	1.3648775836459728	0.43160807177432137	-0.030747098001033486	1.550274383409204	0.3845579680043971	-0.07669366580544355	1.6373776403337144	0.4031701032905401	-0.08985741686527762	1.6345595844265342	0.42329303226595816	-0.08037168766945008	1.6330304662993909	-0.06713601204765421	0.2441107784368878	1.2598559845689548	-0.10133561190202871	0.18365913932815173	1.4512522187117634	-0.13686021990881864	0.05640732643235785	1.6466463409170062	-0.10894518348856493	0.007390561256512554	1.7476279377605433	-0.14148577072923893	-0.012195161246189426	1.7375953801586026	-0.1670010885941867	-0.021038405480573678	1.7219526285507316
118	2.36	0.237219867504553	0.5884864019727143	1.4523136070519358	0.3282083989618329	0.21157450702598846	1.4614892045512755	0.38713615792985767	0.6223615413113983	1.9590500907655404	0.3835784565348506	0.5726622844121708	2.086281598318287	0.4356200803334787	0.6425314775190705	2.105994773104963	0.4110852634715747	0.8689084781355211	2.142332643956162	0.051696400743927215	0.5182080258334655	1.4308363327881715	-0.05086366911333396	0.2239086739913617	1.5091783806667938	0.04232275426682636	0.3894536571227068	1.7191274205572948	0.09786833245432298	0.2866234444360262	1.7333888977559597	0.06779442694022163	0.3409298182674375	1.7670436229927544	0.07161645569769431	0.4265413165436662	1.753669399455096	0.08627289809599267	0.23540525000296622	1.2636208631653705	0.021236958201792194	-0.09164729612680912	0.9584629353085706	0.07005868964525273	-0.011519733325301252	1.1254690953047035	0.22334073590311398	0.1955467661020913	1.186989592142297	0.36807258179310637	0.11598627808565792	1.3669487713839992	0.4243718808097224	-0.040464936853356406	1.5444220342484358	0.38435235011517926	-0.07654641534217449	1.6377204443874125	0.40312452906639945	-0.08986116682621868	1.6347856297540586	0.41657863056740146	-0.08920741904470036	1.6273075268354307	-0.059476767867373735	0.2485822089549087	1.2657436223291254	-0.09885856190254178	0.18611776066779395	1.4443390104247933	-0.13622397273411144	0.05537492640797765	1.650077345679867	-0.10668188239013485	0.018420351459475248	1.7554978983974514	-0.1385441610379676	-0.0009003942426594812	1.7499570313323207	-0.1629653782657297	-0.018824110627081794	1.7283360261256533
119	2.38	0.23653308757421507	0.6169277590588237	1.460870157038818	0.3292337332282455	0.21557539283410346	1.4597170654404874	0.386970964887214	0.6210587660627058	1.9604355156255096	0.37926902628401665	0.419955729580593	1.9812221570667516	0.4225008976486945	0.6198996503224752	2.0889065375963662	0.40788690163364494	0.8632910908137648	2.136950912144628	0.049923779486046746	0.5178431751824579	1.4420567988557251	-0.04388272700256544	0.23393882660512777	1.5110017948546202	0.03788517123404305	0.4242878901820644	1.7440260141969892	0.09687235884043091	0.2909554674126933	1.7363739390579385	0.0668207997500735	0.3449271390592485	1.7696822675858213	0.07158620609859133	0.427738824059258	1.7583451672194483	0.0823367749742468	0.2569635403668476	1.2751097600923713	0.020469729568522502	-0.09141481609473233	0.9508947951242737	0.07802621199840352	-0.011671229851030918	1.1209053865338707	0.2244411556445743	0.1949271967593598	1.1860633246926942	0.36409964130487565	0.12786101591905857	1.3731604489080205	0.4172404328167235	-0.05015692541075408	1.538418257040989	0.379281562013206	-0.06600617557831161	1.6451765852989808	0.4029604970512936	-0.0899040224781722	1.6346699526627984	0.41656126341927974	-0.08922960037537768	1.6273442314944553	-0.05347693059960832	0.24505289252824405	1.262858632955775	-0.09490416014928021	0.19420737524736956	1.456231373456621	-0.13602616489401853	0.055624061947841204	1.6500835080598397	-0.10641700241420603	0.018580386859397544	1.7554849033072715	-0.138549043152822	-0.0005094748519924569	1.7502464922611602	-0.16377232037340395	-0.018866147955344616	1.7237657395539028
120	2.4	0.23347114867589738	0.5683651825059998	1.4487703858152579	0.32950893990385965	0.21579775087656258	1.4594270027373488	0.3865888690823217	0.6188841649769988	1.9623805186785712	0.37495959603318263	0.2672491747490153	1.8761627158152163	0.4093817149639103	0.59726782312588	2.071818302087769	0.4046885397957151	0.8576737034920084	2.1315691803330945	-0.044728189627556945	0.6894099486899143	1.6169165432483013	-0.03990876208813797	0.23383768051375636	1.5205962425420858	0.056768894049598465	0.36022491938351325	1.7022379618481416	0.09587638522653882	0.2952874903893603	1.7393589803599174	0.06584717255992537	0.34892445985105947	1.772320912178888	0.07155595649948834	0.4289363315748497	1.7630209349838006	0.0828606835028005	0.2337721609834243	1.2685576657560733	0.032722522281546186	-0.06977755147921771	0.9519509057139737	0.07688593957127135	-0.0004814180944800796	1.1306711644569931	0.22033012943999905	0.19582700296483085	1.179662337847275	0.36197979506259625	0.11933340949251606	1.3528538781367947	0.4242075873813168	-0.040751155924466466	1.5439953777023474	0.38392562704749045	-0.07725540300587272	1.6372352607271463	0.40285877629027755	-0.09024161955953781	1.6343242593080503	0.41678296630283423	-0.08901706014938299	1.626943356520063	-0.05064921069370222	0.24567153418854548	1.2713315892981512	-0.09167882022709876	0.19620091046898355	1.4572637894005769	-0.13056812859708108	0.06847270707457026	1.6541230202817456	-0.11678875342304353	0.039909368091091524	1.771802755476033	-0.1377232937857049	0.010022001396490824	1.7619429099805954	-0.1566174006303136	-0.006066062345638775	1.733114065450965
121	2.42	0.24085677053048896	0.5554350192482832	1.4300666994049567	0.3240982759514056	0.2104920997374185	1.455791975731425	0.38210055338046706	0.6140474771023515	1.9501918069910928	0.37065016578234866	0.11454261991743753	1.7711032745636808	0.40525645211235356	0.5929664997880845	2.060172374038207	0.4042423109749603	0.8263409526621088	2.110051256210597	0.043931524103177126	0.5149724573488856	1.4538209842606091	-0.039162050232219074	0.21854652650543335	1.5172100908000128	0.05804893054099341	0.3543978570682349	1.7078257452586167	0.09488041161264674	0.2996195133660274	1.7423440216618962	0.06487354536977724	0.35292178064287044	1.774959556771955	0.07152570690038534	0.4301338390904415	1.7676967027481532	0.08625368341127279	0.23584535642300156	1.2637702742401056	0.03516644726921307	-0.07178930281588912	0.9566199908868913	0.06543710207651705	8.978042472425758e-05	1.128430167494408	0.2270568965146212	0.20764663221023108	1.1853632599903332	0.36470442985315255	0.12096402670426058	1.3496200690610838	0.43144720773953943	-0.031175815817027937	1.5496801587074245	0.38389309425340423	-0.07724478927467673	1.636854845643513	0.40406525598987963	-0.08896322680762747	1.6284101730816443	0.4226806567768674	-0.0789850686854538	1.6210516436252487	-0.04742881976621034	0.25142217544826484	1.2585670094138437	-0.09579804407967574	0.19646467045910507	1.4501147571040864	-0.13095908768827483	0.06977152671554221	1.6509313537841093	-0.11320286301995991	0.0393327563443892	1.7649474872583353	-0.1400426174548056	0.030780464719828614	1.7647655361184962	-0.15263267688537097	0.015317094241223728	1.7439169191771056
